<svg width="173" height="60" viewBox="0 0 173 60" fill="none" xmlns="http://www.w3.org/2000/svg">
<path d="M1.98534e-05 8.58659C-3.13551e-07 5.58134 2.85942e-10 2.90142 2.85942e-10 0.0207068C7.4952 0.0207068 14.5974 0.0207068 22.0724 0.0207068C21.0719 4.00606 20.8221 8.03222 24.3202 10.7062C26.0745 12.0473 28.6168 13.0105 30.8023 13.0097C36.8523 13.0077 39.6844 8.07206 38.5758 0C45.713 0 52.8257 0 60.3554 0C60.3554 7.25988 60.3554 14.46 60.3554 21.9589C65.568 20.6055 69.856 21.1017 72.5956 25.8066C74.4711 29.0277 74.2755 32.2508 72.084 35.2571C69.2735 39.1126 65.4539 39.7692 60.6822 38.2617C60.6822 45.5587 60.6822 52.6336 60.6822 60C40.3897 60 20.5083 60 4.46698e-05 60C4.46698e-05 43.0453 4.45742e-05 25.9786 1.98534e-05 8.58659Z" fill="#16A34A"/>
<path d="M115.848 22.1307C115.711 20.7557 115.126 19.6875 114.092 18.9261C113.058 18.1648 111.654 17.7841 109.882 17.7841C108.677 17.7841 107.66 17.9545 106.831 18.2955C106.001 18.625 105.365 19.0852 104.921 19.6761C104.49 20.267 104.274 20.9375 104.274 21.6875C104.251 22.3125 104.382 22.858 104.666 23.3239C104.961 23.7898 105.365 24.1932 105.876 24.5341C106.387 24.8636 106.978 25.1534 107.649 25.4034C108.319 25.642 109.035 25.8466 109.796 26.017L112.933 26.767C114.456 27.108 115.853 27.5625 117.126 28.1307C118.399 28.6989 119.501 29.3977 120.433 30.2273C121.365 31.0568 122.086 32.0341 122.598 33.1591C123.12 34.2841 123.387 35.5739 123.399 37.0284C123.387 39.1648 122.842 41.017 121.762 42.5852C120.694 44.142 119.149 45.3523 117.126 46.2159C115.115 47.0682 112.688 47.4943 109.848 47.4943C107.029 47.4943 104.575 47.0625 102.484 46.1989C100.404 45.3352 98.7794 44.0568 97.6089 42.3636C96.4498 40.6591 95.8419 38.5511 95.7851 36.0398H102.927C103.007 37.2102 103.342 38.1875 103.933 38.9716C104.535 39.7443 105.336 40.3295 106.336 40.7273C107.348 41.1136 108.49 41.3068 109.762 41.3068C111.012 41.3068 112.098 41.125 113.018 40.7614C113.95 40.3977 114.671 39.892 115.183 39.2443C115.694 38.5966 115.95 37.8523 115.95 37.0114C115.95 36.2273 115.717 35.5682 115.251 35.0341C114.796 34.5 114.126 34.0455 113.24 33.6705C112.365 33.2955 111.291 32.9545 110.018 32.6477L106.217 31.6932C103.274 30.9773 100.95 29.858 99.2453 28.3352C97.5407 26.8125 96.6942 24.7614 96.7055 22.1818C96.6942 20.0682 97.2567 18.2216 98.393 16.642C99.5407 15.0625 101.115 13.8295 103.115 12.9432C105.115 12.0568 107.387 11.6136 109.933 11.6136C112.524 11.6136 114.785 12.0568 116.717 12.9432C118.66 13.8295 120.171 15.0625 121.251 16.642C122.331 18.2216 122.887 20.0511 122.921 22.1307H115.848ZM143.346 12.0909V47H135.965V19.0966H135.761L127.767 24.108V17.5625L136.409 12.0909H143.346ZM166.831 12.0909V47H159.45V19.0966H159.245L151.251 24.108V17.5625L159.893 12.0909H166.831Z" fill="#16A34A"/>
</svg>
